2014001_C3_02_grf
version=1
nRows=27
nColumns=19
inDegrees=no
endheader
time	ground_force_1_vx	ground_force_1_vy	ground_force_1_vz	ground_force_1_px	ground_force_1_py	ground_force_1_pz	ground_force_1_mx	ground_force_1_my	ground_force_1_mz	ground_force_2_vx	ground_force_2_vy	ground_force_2_vz	ground_force_2_px	ground_force_2_py	ground_force_2_pz	ground_force_2_mx	ground_force_2_my	ground_force_2_mz
      0.46700000	      0.00000000	      0.00000000	      0.00000000	      0.00000000	      0.00000000	      0.00000000	      0.00000000	      0.00000000	      0.00000000	    -33.04517381	    565.42477012	     -6.37368578	      0.31409711	     -0.00200000	      0.78598726	      0.00000000	      0.03064664	     -0.00000000
      0.46800000	      0.00000000	      0.00000000	      0.00000000	      0.00000000	      0.00000000	      0.00000000	      0.00000000	      0.00000000	      0.00000000	    -33.13905224	    566.16705656	     -6.78830966	      0.31413314	     -0.00200000	      0.78591662	      0.00000000	      0.04030309	      0.00000000
      0.46900000	      0.00000000	      0.00000000	      0.00000000	      0.00000000	      0.00000000	      0.00000000	      0.00000000	      0.00000000	      0.00000000	    -33.23164880	    566.92057848	     -7.20161363	      0.31416806	     -0.00200000	      0.78584587	      0.00000000	      0.05010306	      0.00000000
      0.47000000	      0.00000000	      0.00000000	      0.00000000	      0.00000000	      0.00000000	      0.00000000	      0.00000000	      0.00000000	      0.00000000	    -33.32323059	    567.68310070	     -7.61387916	      0.31420211	     -0.00200000	      0.78577502	      0.00000000	      0.06003376	      0.00000000
      0.47100000	      0.00000000	      0.00000000	      0.00000000	      0.00000000	      0.00000000	      0.00000000	      0.00000000	      0.00000000	      0.00000000	    -33.41358192	    568.45721602	     -8.02487414	      0.31423505	     -0.00200000	      0.78570401	      0.00000000	      0.07014595	      0.00000000
      0.47200000	      0.00000000	      0.00000000	      0.00000000	      0.00000000	      0.00000000	      0.00000000	      0.00000000	      0.00000000	      0.00000000	    -33.50299001	    569.24068928	     -8.43488146	      0.31426713	     -0.00200000	      0.78563288	      0.00000000	      0.08041674	      0.00000000
      0.47300000	      0.00000000	      0.00000000	      0.00000000	      0.00000000	      0.00000000	      0.00000000	      0.00000000	      0.00000000	      0.00000000	    -33.59128051	    570.03605366	     -8.84369528	      0.31429811	     -0.00200000	      0.78556158	      0.00000000	      0.09090154	      0.00000000
      0.47400000	      0.00000000	      0.00000000	      0.00000000	      0.00000000	      0.00000000	      0.00000000	      0.00000000	      0.00000000	      0.00000000	    -33.67874846	    570.84101439	     -9.25158896	      0.31432823	     -0.00200000	      0.78549010	     -0.00000000	      0.10156993	      0.00000000
      0.47500000	      0.00000000	      0.00000000	      0.00000000	      0.00000000	      0.00000000	      0.00000000	      0.00000000	      0.00000000	      0.00000000	    -33.76528770	    571.65819407	     -9.65837482	      0.31435725	     -0.00200000	      0.78541836	      0.00000000	      0.11248402	      0.00000000
      0.47600000	      0.00000000	      0.00000000	      0.00000000	      0.00000000	      0.00000000	      0.00000000	      0.00000000	      0.00000000	      0.00000000	    -33.85117874	    572.48514891	    -10.06430481	      0.31438539	     -0.00200000	      0.78534638	      0.00000000	      0.12360846	      0.00000000
      0.47700000	      0.00000000	      0.00000000	      0.00000000	      0.00000000	      0.00000000	      0.00000000	      0.00000000	      0.00000000	      0.00000000	    -33.93639252	    573.32453132	    -10.46920987	      0.31441244	     -0.00200000	      0.78527405	      0.00000000	      0.13501201	      0.00000000
      0.47800000	      0.00000000	      0.00000000	      0.00000000	      0.00000000	      0.00000000	      0.00000000	      0.00000000	      0.00000000	      0.00000000	    -34.02117714	    574.17386770	    -10.87333728	      0.31443863	     -0.00200000	      0.78520140	      0.00000000	      0.14665022	      0.00000000
      0.47900000	      0.00000000	      0.00000000	      0.00000000	      0.00000000	      0.00000000	      0.00000000	      0.00000000	      0.00000000	      0.00000000	    -34.10558403	    575.03569126	    -11.27655432	      0.31446379	     -0.00200000	      0.78512829	      0.00000000	      0.15859426	      0.00000000
      0.48000000	      0.00000000	      0.00000000	      0.00000000	      0.00000000	      0.00000000	      0.00000000	      0.00000000	      0.00000000	      0.00000000	    -34.18982774	    575.90752840	    -11.67909522	      0.31448812	     -0.00200000	      0.78505478	      0.00000000	      0.17079217	      0.00000000
      0.48100000	      0.00000000	      0.00000000	      0.00000000	      0.00000000	      0.00000000	      0.00000000	      0.00000000	      0.00000000	      0.00000000	    -34.27404463	    576.79191232	    -12.08085287	      0.31451147	     -0.00200000	      0.78498072	      0.00000000	      0.18331765	      0.00000000
      0.48200000	      0.00000000	      0.00000000	      0.00000000	      0.00000000	      0.00000000	      0.00000000	      0.00000000	      0.00000000	      0.00000000	    -34.35839340	    577.68619061	    -12.48203497	      0.31453408	     -0.00200000	      0.78490617	      0.00000000	      0.19611259	      0.00000000
      0.48300000	      0.00000000	      0.00000000	      0.00000000	      0.00000000	      0.00000000	      0.00000000	      0.00000000	      0.00000000	      0.00000000	    -34.44310538	    578.59289646	    -12.88256049	      0.31455577	     -0.00200000	      0.78483096	      0.00000000	      0.20925078	      0.00000000
      0.48400000	      0.00000000	      0.00000000	      0.00000000	      0.00000000	      0.00000000	      0.00000000	      0.00000000	      0.00000000	      0.00000000	    -34.52828005	    579.50931787	    -13.28261103	      0.31457678	     -0.00200000	      0.78475522	      0.00000000	      0.22266776	      0.00000000
      0.48500000	      0.00000000	      0.00000000	      0.00000000	      0.00000000	      0.00000000	      0.00000000	      0.00000000	      0.00000000	      0.00000000	    -34.61426049	    580.43786883	    -13.68213072	      0.31459692	     -0.00200000	      0.78467874	     -0.00000000	      0.23643710	      0.00000000
      0.48600000	      0.00000000	      0.00000000	      0.00000000	      0.00000000	      0.00000000	      0.00000000	      0.00000000	      0.00000000	      0.00000000	    -34.70107913	    581.37589693	    -14.08127695	      0.31461643	     -0.00200000	      0.78460166	      0.00000000	      0.25049029	      0.00000000
      0.48700000	      0.00000000	      0.00000000	      0.00000000	      0.00000000	      0.00000000	      0.00000000	      0.00000000	      0.00000000	      0.00000000	    -34.78918076	    582.32557774	    -14.48002644	      0.31463517	     -0.00200000	      0.78452377	      0.00000000	      0.26489858	      0.00000000
      0.48800000	      0.00000000	      0.00000000	      0.00000000	      0.00000000	      0.00000000	      0.00000000	      0.00000000	      0.00000000	      0.00000000	    -34.87850279	    583.28443766	    -14.87851795	      0.31465331	     -0.00200000	      0.78444519	      0.00000000	      0.27958977	      0.00000000
      0.48900000	      0.00000000	      0.00000000	      0.00000000	      0.00000000	      0.00000000	      0.00000000	      0.00000000	      0.00000000	      0.00000000	    -34.96959172	    584.25438404	    -15.27676824	      0.31467077	     -0.00200000	      0.78436572	      0.00000000	      0.29462999	      0.00000000
      0.49000000	      0.00000000	      0.00000000	      0.00000000	      0.00000000	      0.00000000	      0.00000000	      0.00000000	      0.00000000	      0.00000000	    -35.06228998	    585.23309231	    -15.67488723	      0.31468769	     -0.00200000	      0.78428550	      0.00000000	      0.30994516	      0.00000000
      0.49100000	      0.00000000	      0.00000000	      0.00000000	      0.00000000	      0.00000000	      0.00000000	      0.00000000	      0.00000000	      0.00000000	    -35.15725024	    586.22235060	    -16.07293077	      0.31470398	     -0.00200000	      0.78420431	      0.00000000	      0.32559498	      0.00000000
      0.49200000	      0.00000000	      0.00000000	      0.00000000	      0.00000000	      0.00000000	      0.00000000	      0.00000000	      0.00000000	      0.00000000	    -35.25421768	    587.21989393	    -16.47099294	      0.31471979	     -0.00200000	      0.78412232	      0.00000000	      0.34150235	      0.00000000
      0.49300000	      0.00000000	      0.00000000	      0.00000000	      0.00000000	      0.00000000	      0.00000000	      0.00000000	      0.00000000	      0.00000000	    -35.35393327	    588.22742105	    -16.86919201	      0.31473502	     -0.00200000	      0.78403928	      0.00000000	      0.35771540	      0.00000000
